<?xml version="1.0" encoding="UTF-8"?>
<svg width="800" height="600" viewBox="0 0 800 600" xmlns="http://www.w3.org/2000/svg">
  <!-- Fondo y título -->
  <rect width="800" height="600" fill="#f8f9fa" rx="10" ry="10"/>
  <text x="400" y="50" font-family="Arial, sans-serif" font-size="24" font-weight="bold" text-anchor="middle" fill="#333">Ejemplo: Soporte Técnico</text>
  
  <!-- Contenedor principal dividido en dos columnas -->
  <g transform="translate(50, 100)">
    <!-- Columna izquierda: Chat -->
    <rect x="0" y="0" width="450" height="350" fill="#fff" stroke="#ddd" stroke-width="2" rx="10" ry="10"/>
    <text x="225" y="30" font-family="Arial, sans-serif" font-size="18" font-weight="bold" text-anchor="middle" fill="#333">Conversación</text>
    
    <!-- Mensaje del usuario -->
    <g transform="translate(20, 60)">
      <rect x="0" y="0" width="380" height="60" fill="#e1f5fe" rx="10" ry="10"/>
      <text x="20" y="25" font-family="Arial, sans-serif" font-size="16" font-weight="bold" fill="#333">Usuario:</text>
      <text x="20" y="50" font-family="Arial, sans-serif" font-size="16" fill="#333">Mi laptop no enciende desde ayer</text>
    </g>
    
    <!-- Respuesta del bot -->
    <g transform="translate(70, 140)">
      <rect x="0" y="0" width="380" height="120" fill="#e8f5e9" rx="10" ry="10"/>
      <text x="20" y="25" font-family="Arial, sans-serif" font-size="16" font-weight="bold" fill="#333">Asistente:</text>
      <text x="20" y="50" font-family="Arial, sans-serif" font-size="16" fill="#333">Lamento escuchar eso. Vamos a revisar qué</text>
      <text x="20" y="75" font-family="Arial, sans-serif" font-size="16" fill="#333">puede estar causando el problema. ¿Ha notado</text>
      <text x="20" y="100" font-family="Arial, sans-serif" font-size="16" fill="#333">algún ruido o luz cuando intenta encenderla?</text>
    </g>
    
    <!-- Columna derecha: Procesamiento -->
    <g transform="translate(500, 0)">
      <rect x="0" y="0" width="200" height="350" fill="#f5f5f5" stroke="#ddd" stroke-width="1" rx="10" ry="10"/>
      <text x="100" y="30" font-family="Arial, sans-serif" font-size="18" font-weight="bold" text-anchor="middle" fill="#333">Procesamiento</text>
      
      <!-- Árbol -->
      <g transform="translate(0, 60)">
        <rect x="25" y="0" width="150" height="70" fill="#4CAF50" rx="5" ry="5"/>
        <text x="100" y="25" font-family="Arial, sans-serif" font-size="16" font-weight="bold" text-anchor="middle" fill="#fff">ÁRBOL</text>
        <text x="100" y="50" font-family="Arial, sans-serif" font-size="14" text-anchor="middle" fill="#fff">TechShop</text>
      </g>
      
      <!-- Flecha -->
      <line x1="100" y1="130" x2="100" y2="150" stroke="#333" stroke-width="2" marker-end="url(#arrow)"/>
      
      <!-- Rama -->
      <g transform="translate(0, 150)">
        <rect x="25" y="0" width="150" height="70" fill="#8BC34A" rx="5" ry="5"/>
        <text x="100" y="25" font-family="Arial, sans-serif" font-size="16" font-weight="bold" text-anchor="middle" fill="#fff">RAMA</text>
        <text x="100" y="50" font-family="Arial, sans-serif" font-size="14" text-anchor="middle" fill="#fff">problema_hardware</text>
      </g>
      
      <!-- Flecha a las hojas -->
      <line x1="100" y1="220" x2="70" y2="240" stroke="#333" stroke-width="2" marker-end="url(#arrow)"/>
      <line x1="100" y1="220" x2="130" y2="240" stroke="#333" stroke-width="2" marker-end="url(#arrow)"/>
      
      <!-- Hojas -->
      <g transform="translate(0, 240)">
        <rect x="10" y="0" width="80" height="70" fill="#CDDC39" rx="5" ry="5"/>
        <text x="50" y="25" font-family="Arial, sans-serif" font-size="16" font-weight="bold" text-anchor="middle" fill="#fff">HOJA</text>
        <text x="50" y="50" font-family="Arial, sans-serif" font-size="14" text-anchor="middle" fill="#fff">dispositivo</text>
        <text x="50" y="70" font-family="Arial, sans-serif" font-size="14" text-anchor="middle" fill="#fff">= "laptop"</text>
      </g>
      
      <g transform="translate(110, 240)">
        <rect x="0" y="0" width="80" height="70" fill="#CDDC39" rx="5" ry="5"/>
        <text x="40" y="25" font-family="Arial, sans-serif" font-size="16" font-weight="bold" text-anchor="middle" fill="#fff">HOJA</text>
        <text x="40" y="50" font-family="Arial, sans-serif" font-size="14" text-anchor="middle" fill="#fff">síntoma</text>
        <text x="40" y="70" font-family="Arial, sans-serif" font-size="14" text-anchor="middle" fill="#fff">= "no enciende"</text>
      </g>
    </g>
  </g>
  
  <!-- Explicación del flujo -->
  <g transform="translate(400, 480)">
    <rect x="-350" y="0" width="700" height="100" fill="#fff" stroke="#ddd" stroke-width="1" rx="5" ry="5"/>
    <text x="0" y="25" font-family="Arial, sans-serif" font-size="16" font-weight="bold" text-anchor="middle" fill="#333">Flujo de Procesamiento:</text>
    <text x="0" y="55" font-family="Arial, sans-serif" font-size="16" text-anchor="middle" fill="#333">1. El Árbol "TechShop" identifica la Rama "problema_hardware"</text>
    <text x="0" y="80" font-family="Arial, sans-serif" font-size="16" text-anchor="middle" fill="#333">2. Se extraen las Hojas "dispositivo" y "síntoma" para proporcionar soluciones específicas</text>
  </g>
  
  <!-- Flechas de flujo entre chat y procesamiento -->
  <g stroke="#666" stroke-width="2" fill="none" stroke-dasharray="5,5">
    <path d="M450,160 C480,160 500,160 550,160" marker-end="url(#arrow)"/>
    <path d="M550,270 C500,270 480,270 450,270" marker-end="url(#arrow)"/>
  </g>
  
  <!-- Definición de marcadores de flecha -->
  <defs>
    <marker id="arrow" markerWidth="10" markerHeight="10" refX="9" refY="3" orient="auto" markerUnits="strokeWidth">
      <path d="M0,0 L0,6 L9,3 z" fill="#666"/>
    </marker>
  </defs>
</svg>
