<svg width="600" height="350" xmlns="http://www.w3.org/2000/svg">
  <!-- Fondo con borde redondeado -->
  <rect x="10" y="10" width="580" height="330" rx="10" ry="10" fill="#f8f9fa" stroke="#ddd" stroke-width="2"/>
  
  <!-- Título -->
  <text x="300" y="40" font-family="Arial" font-size="18" font-weight="bold" text-anchor="middle">Hojas del Sistema</text>
  
  <!-- Contenedor principal -->
  <rect x="50" y="60" width="500" height="250" rx="5" ry="5" fill="#f9f0ff" stroke="#722ed1" stroke-width="2"/>
  <text x="300" y="85" font-family="Arial" font-size="16" font-weight="bold" text-anchor="middle">Hojas Predefinidas de TreeFlow</text>
  
  <!-- Hojas del sistema -->
  <rect x="70" y="100" width="140" height="40" rx="5" ry="5" fill="#fff" stroke="#722ed1" stroke-width="1"/>
  <text x="140" y="125" font-family="Arial" font-size="14" text-anchor="middle">sys.number</text>
  
  <rect x="230" y="100" width="140" height="40" rx="5" ry="5" fill="#fff" stroke="#722ed1" stroke-width="1"/>
  <text x="300" y="125" font-family="Arial" font-size="14" text-anchor="middle">sys.date</text>
  
  <rect x="390" y="100" width="140" height="40" rx="5" ry="5" fill="#fff" stroke="#722ed1" stroke-width="1"/>
  <text x="460" y="125" font-family="Arial" font-size="14" text-anchor="middle">sys.time</text>
  
  <rect x="70" y="150" width="140" height="40" rx="5" ry="5" fill="#fff" stroke="#722ed1" stroke-width="1"/>
  <text x="140" y="175" font-family="Arial" font-size="14" text-anchor="middle">sys.email</text>
  
  <rect x="230" y="150" width="140" height="40" rx="5" ry="5" fill="#fff" stroke="#722ed1" stroke-width="1"/>
  <text x="300" y="175" font-family="Arial" font-size="14" text-anchor="middle">sys.phone</text>
  
  <rect x="390" y="150" width="140" height="40" rx="5" ry="5" fill="#fff" stroke="#722ed1" stroke-width="1"/>
  <text x="460" y="175" font-family="Arial" font-size="14" text-anchor="middle">sys.url</text>
  
  <rect x="70" y="200" width="140" height="40" rx="5" ry="5" fill="#fff" stroke="#722ed1" stroke-width="1"/>
  <text x="140" y="225" font-family="Arial" font-size="14" text-anchor="middle">sys.currency</text>
  
  <rect x="230" y="200" width="140" height="40" rx="5" ry="5" fill="#fff" stroke="#722ed1" stroke-width="1"/>
  <text x="300" y="225" font-family="Arial" font-size="14" text-anchor="middle">sys.percentage</text>
  
  <rect x="390" y="200" width="140" height="40" rx="5" ry="5" fill="#fff" stroke="#722ed1" stroke-width="1"/>
  <text x="460" y="225" font-family="Arial" font-size="14" text-anchor="middle">sys.any</text>
  
  <!-- Ventajas -->
  <rect x="70" y="260" width="460" height="40" rx="5" ry="5" fill="#f6ffed" stroke="#52c41a" stroke-width="1"/>
  <text x="300" y="285" font-family="Arial" font-size="14" text-anchor="middle">Optimizadas para reconocer variaciones y formatos regionales</text>
</svg>
