<?xml version="1.0" encoding="UTF-8" standalone="no"?>
<svg width="800" height="400" viewBox="0 0 800 400" xmlns="http://www.w3.org/2000/svg">
  <!-- Fondo -->
  <rect width="800" height="400" fill="#f5f5f5" rx="10" ry="10"/>
  
  <!-- Barra lateral -->
  <rect x="0" y="0" width="200" height="400" fill="#333333" rx="0" ry="0"/>
  
  <!-- Logo en barra lateral -->
  <circle cx="100" cy="50" r="30" fill="#4CAF50"/>
  <text x="100" y="55" font-family="Arial" font-size="14" text-anchor="middle" fill="#ffffff">TreeFlow</text>
  
  <!-- Elementos de menú -->
  <rect x="20" y="100" width="160" height="40" fill="#4CAF50" rx="4" ry="4"/>
  <text x="100" y="125" font-family="Arial" font-size="14" text-anchor="middle" fill="#ffffff">Árboles</text>
  
  <rect x="20" y="150" width="160" height="40" fill="#444444" rx="4" ry="4"/>
  <text x="100" y="175" font-family="Arial" font-size="14" text-anchor="middle" fill="#ffffff">Ramas</text>
  
  <rect x="20" y="200" width="160" height="40" fill="#444444" rx="4" ry="4"/>
  <text x="100" y="225" font-family="Arial" font-size="14" text-anchor="middle" fill="#ffffff">Hojas</text>
  
  <!-- Contenido principal -->
  <rect x="220" y="20" width="560" height="60" fill="#ffffff" rx="4" ry="4"/>
  <text x="250" y="55" font-family="Arial" font-size="24" fill="#333333">Dashboard</text>
  
  <!-- Tarjetas de árboles -->
  <rect x="220" y="100" width="250" height="120" fill="#ffffff" stroke="#e0e0e0" stroke-width="1" rx="4" ry="4"/>
  <rect x="240" y="120" width="60" height="60" fill="#4CAF50" rx="30" ry="30"/>
  <text x="270" y="155" font-family="Arial" font-size="24" text-anchor="middle" fill="#ffffff">+</text>
  <text x="350" y="150" font-family="Arial" font-size="16" fill="#333333">Nuevo Árbol</text>
  
  <rect x="500" y="100" width="250" height="120" fill="#ffffff" stroke="#e0e0e0" stroke-width="1" rx="4" ry="4"/>
  <rect x="520" y="120" width="60" height="60" fill="#2196F3" rx="4" ry="4"/>
  <text x="630" y="150" font-family="Arial" font-size="16" fill="#333333">Soporte</text>
  
  <rect x="220" y="240" width="250" height="120" fill="#ffffff" stroke="#e0e0e0" stroke-width="1" rx="4" ry="4"/>
  <rect x="240" y="260" width="60" height="60" fill="#FFC107" rx="4" ry="4"/>
  <text x="350" y="290" font-family="Arial" font-size="16" fill="#333333">Reservas</text>
  
  <rect x="500" y="240" width="250" height="120" fill="#ffffff" stroke="#e0e0e0" stroke-width="1" rx="4" ry="4"/>
  <rect x="520" y="260" width="60" height="60" fill="#9C27B0" rx="4" ry="4"/>
  <text x="630" y="290" font-family="Arial" font-size="16" fill="#333333">FAQ</text>
  
  <!-- Marca de agua -->
  <text x="400" y="380" font-family="Arial" font-size="12" text-anchor="middle" fill="#999999">Placeholder - TreeFlow Dashboard</text>
</svg>
