<?xml version="1.0" encoding="UTF-8" standalone="no"?>
<svg width="800" height="400" viewBox="0 0 800 400" xmlns="http://www.w3.org/2000/svg">
  <!-- Fondo -->
  <rect width="800" height="400" fill="#f5f5f5" rx="10" ry="10"/>
  
  <!-- Barra lateral -->
  <rect x="0" y="0" width="200" height="400" fill="#333333" rx="0" ry="0"/>
  
  <!-- Elementos de menú -->
  <rect x="20" y="100" width="160" height="40" fill="#444444" rx="4" ry="4"/>
  <text x="100" y="125" font-family="Arial" font-size="14" text-anchor="middle" fill="#ffffff">General</text>
  
  <rect x="20" y="150" width="160" height="40" fill="#4CAF50" rx="4" ry="4"/>
  <text x="100" y="175" font-family="Arial" font-size="14" text-anchor="middle" fill="#ffffff">Ramas</text>
  
  <rect x="20" y="200" width="160" height="40" fill="#444444" rx="4" ry="4"/>
  <text x="100" y="225" font-family="Arial" font-size="14" text-anchor="middle" fill="#ffffff">Hojas</text>
  
  <!-- Contenido principal -->
  <rect x="220" y="20" width="560" height="60" fill="#ffffff" rx="4" ry="4"/>
  <text x="250" y="55" font-family="Arial" font-size="24" fill="#333333">Editor de Ramas</text>
  
  <!-- Lista de ramas -->
  <rect x="220" y="100" width="200" height="280" fill="#ffffff" stroke="#e0e0e0" stroke-width="1" rx="4" ry="4"/>
  
  <rect x="230" y="110" width="180" height="40" fill="#4CAF50" rx="4" ry="4"/>
  <text x="320" y="135" font-family="Arial" font-size="14" text-anchor="middle" fill="#ffffff">+ Nueva Rama</text>
  
  <rect x="230" y="160" width="180" height="30" fill="#f9f9f9" stroke="#e0e0e0" stroke-width="1" rx="4" ry="4"/>
  <text x="250" y="180" font-family="Arial" font-size="14" fill="#333333">Bienvenida</text>
  
  <rect x="230" y="200" width="180" height="30" fill="#f9f9f9" stroke="#e0e0e0" stroke-width="1" rx="4" ry="4"/>
  <text x="250" y="220" font-family="Arial" font-size="14" fill="#333333">Información</text>
  
  <rect x="230" y="240" width="180" height="30" fill="#2196F3" stroke="#e0e0e0" stroke-width="1" rx="4" ry="4"/>
  <text x="250" y="260" font-family="Arial" font-size="14" fill="#ffffff">Reserva</text>
  
  <!-- Editor de rama -->
  <rect x="440" y="100" width="340" height="280" fill="#ffffff" stroke="#e0e0e0" stroke-width="1" rx="4" ry="4"/>
  
  <text x="460" y="130" font-family="Arial" font-size="18" fill="#333333">Rama: Reserva</text>
  
  <text x="460" y="160" font-family="Arial" font-size="14" fill="#666666">Patrones de activación:</text>
  <rect x="460" y="170" width="300" height="60" fill="#f9f9f9" stroke="#e0e0e0" stroke-width="1" rx="4" ry="4"/>
  <text x="470" y="190" font-family="Arial" font-size="12" fill="#333333">quiero hacer una reserva</text>
  <text x="470" y="210" font-family="Arial" font-size="12" fill="#333333">reservar una mesa</text>
  
  <text x="460" y="250" font-family="Arial" font-size="14" fill="#666666">Respuesta:</text>
  <rect x="460" y="260" width="300" height="60" fill="#f9f9f9" stroke="#e0e0e0" stroke-width="1" rx="4" ry="4"/>
  <text x="470" y="280" font-family="Arial" font-size="12" fill="#333333">¡Claro! Para hacer una reserva</text>
  <text x="470" y="300" font-family="Arial" font-size="12" fill="#333333">necesito algunos datos...</text>
  
  <!-- Marca de agua -->
  <text x="400" y="380" font-family="Arial" font-size="12" text-anchor="middle" fill="#999999">Placeholder - Editor de Ramas</text>
</svg>
